<svg xmlns="http://www.w3.org/2000/svg" width="400" height="400">
  <!-- Background -->
  <rect x= "0" y= "0" width="500" height="500" fill= "#0eabfa"/>
  <!-- Grass -->
  <rect x= "0" y= "200" width="500" height="250" fill= "#4bfa0e"/>
  <!-- Tree Leaves -->
  <circle cx= "50" cy= "175" r= "50" fill= "green" />
  <circle cx= "50" cy= "175" r= "50" fill= "green" transform= "translate (300, 0)"/>
  <!-- Water -->
  <path d="M 300,200 A 50,40 0 0 1 100,200 Z" fill="blue"/>
  <!-- Tree Trunks -->
  <rect x="37" y="220" width="30" height="100" fill="#411e01"/>
  <rect x="37" y="220" width="30" height="100" fill="#411e01" transform="translate (300, 0)"/>
  <polygon points="38,320 38,270 20,320" fill="#411e01"/>
  <polygon points="66,320 66,270 84,320" fill="#411e01" />
  <polygon points="38,320 38,270 20,320" fill="#411e01" transform="translate (300, 0)" />
  <polygon points="66,320 66,270 84,320" fill="#411e01" transform="translate (300, 0)"/>

</svg>
